<?xml version="1.0" standalone="no"?>
<!DOCTYPE svg PUBLIC "-//W3C//DTD SVG 20010904//EN"
 "http://www.w3.org/TR/2001/REC-SVG-20010904/DTD/svg10.dtd">
<svg version="1.0" xmlns="http://www.w3.org/2000/svg"
 width="512.000000pt" height="512.000000pt" viewBox="0 0 512.000000 512.000000"
 preserveAspectRatio="xMidYMid meet">

<g transform="translate(0.000000,512.000000) scale(0.100000,-0.100000)"
fill="#ff0000" stroke="none">
<path d="M946 5109 c-62 -15 -153 -68 -197 -116 -22 -24 -55 -74 -72 -111
l-32 -67 0 -2256 0 -2255 37 -76 c45 -91 103 -147 196 -191 l67 -32 1615 0
1615 0 67 32 c93 44 151 100 196 191 l37 76 0 1875 0 1876 -28 60 c-24 52 -83
115 -465 498 -385 386 -445 442 -502 470 l-65 32 -1215 2 c-708 0 -1231 -3
-1254 -8z m2336 -517 l3 -368 37 -76 c45 -91 103 -147 196 -191 l67 -32 367
-3 368 -3 0 -1776 c0 -1365 -3 -1785 -12 -1817 -16 -55 -99 -138 -154 -154
-60 -17 -3128 -17 -3188 0 -55 16 -138 99 -154 154 -18 60 -18 4408 0 4468 15
51 99 137 148 153 25 8 375 11 1177 12 l1142 1 3 -368z m686 -510 c-225 -2
-326 1 -358 10 -58 16 -141 96 -158 154 -8 29 -12 139 -12 360 l0 319 420
-420 420 -420 -312 -3z"/>
<path d="M2265 4135 c-25 -24 -25 -27 -25 -200 l0 -175 -55 0 c-68 0 -105 -29
-105 -82 0 -29 23 -56 223 -255 204 -205 225 -223 257 -223 32 0 53 18 257
223 200 199 223 226 223 255 0 53 -37 82 -105 82 l-55 0 0 175 c0 173 0 176
-25 200 l-24 25 -271 0 -271 0 -24 -25z m455 -310 c0 -172 1 -177 24 -200 l23
-23 -103 -103 -104 -104 -104 104 -103 103 23 23 c23 23 24 28 24 200 l0 175
160 0 160 0 0 -175z"/>
<path d="M1545 3015 l-25 -24 0 -431 0 -431 25 -24 c15 -16 36 -25 55 -25 19
0 40 9 55 25 25 24 25 27 25 200 l0 175 136 0 c170 0 204 9 269 75 59 59 75
102 75 205 0 103 -16 146 -75 205 -68 69 -94 75 -324 75 -190 0 -192 0 -216
-25z m430 -160 c22 -21 25 -33 25 -95 0 -62 -3 -74 -25 -95 -23 -24 -29 -25
-160 -25 l-135 0 0 120 0 120 135 0 c131 0 137 -1 160 -25z"/>
<path d="M2265 3015 l-25 -24 0 -431 0 -431 25 -24 c24 -25 26 -25 216 -25
121 0 207 4 233 12 55 16 138 99 154 154 17 57 17 571 0 628 -8 26 -31 60 -63
91 -68 69 -94 75 -324 75 -190 0 -192 0 -216 -25z m430 -160 l25 -24 0 -271 0
-271 -25 -24 c-23 -24 -29 -25 -160 -25 l-135 0 0 320 0 320 135 0 c131 0 137
-1 160 -25z"/>
<path d="M2985 3015 l-25 -24 0 -431 0 -431 25 -24 c15 -16 36 -25 55 -25 19
0 40 9 55 25 25 24 25 27 25 200 l0 175 215 0 c216 0 216 0 240 25 16 15 25
36 25 55 0 19 -9 40 -25 55 -24 25 -24 25 -240 25 l-215 0 0 120 0 120 215 0
c216 0 216 0 240 25 16 15 25 36 25 55 0 19 -9 40 -25 55 l-24 25 -271 0 -271
0 -24 -25z"/>
<path d="M2303 1697 c-200 -199 -223 -226 -223 -255 0 -53 37 -82 105 -82 l55
0 0 -175 c0 -173 0 -176 25 -200 l24 -25 271 0 271 0 24 25 c25 24 25 27 25
200 l0 175 55 0 c68 0 105 29 105 82 0 29 -23 56 -223 255 -204 205 -225 223
-257 223 -32 0 -53 -18 -257 -223z m363 -78 l101 -101 -23 -23 c-23 -23 -24
-28 -24 -200 l0 -175 -160 0 -160 0 0 175 c0 171 -1 176 -23 198 l-24 22 101
103 c55 56 103 102 106 102 2 0 50 -45 106 -101z"/>
</g>
</svg>
